Coordinates
version=1
nRows=38
nColumns=12
inDegrees=yes

Units are S.I. units (second, meters, Newtons, ...)
Angles are in degrees

endheader
time	SC_y	SC_z	SC_x	AC_y	AC_z	AC_x	GH_y	GH_z	GH_yy	EL_x	PS_y
       0.0              -26.46          7.069          15.58          40.52         -16.96           19.5         -68.01          16.02         -52.96          31.59          74.89
  0.002092              -26.46          7.072          15.58          40.52         -16.96           19.5         -67.98          16.02         -52.98          31.59          74.88
  0.004184              -26.46          7.075          15.58          40.52         -16.96          19.49         -67.95          16.02          -53.0          31.59          74.87
  0.006276              -26.46          7.078          15.58          40.53         -16.96          19.48         -67.92          16.01         -53.02          31.59          74.86
  0.008368              -26.47          7.082          15.57          40.53         -16.96          19.48         -67.89          16.01         -53.04          31.58          74.85
   0.01046              -26.47          7.086          15.57          40.53         -16.96          19.47         -67.85          16.01         -53.06          31.58          74.84
   0.01255              -26.47           7.09          15.57          40.54         -16.96          19.47         -67.82           16.0         -53.08          31.58          74.83
   0.01464              -26.47          7.095          15.57          40.54         -16.96          19.46         -67.78           16.0         -53.11          31.58          74.82
   0.01674              -26.48            7.1          15.57          40.55         -16.96          19.45         -67.74           16.0         -53.13          31.58           74.8
   0.01883              -26.48          7.105          15.57          40.55         -16.96          19.44         -67.69          15.99         -53.16          31.58          74.79
   0.02092              -26.48           7.11          15.57          40.56         -16.96          19.43         -67.64          15.99         -53.19          31.58          74.77
   0.02301              -26.49          7.116          15.57          40.56         -16.97          19.43         -67.59          15.99         -53.22          31.58          74.76
    0.0251              -26.49          7.123          15.57          40.57         -16.97          19.42         -67.53          15.98         -53.26          31.57          74.74
   0.02719               -26.5           7.13          15.57          40.57         -16.97           19.4         -67.47          15.98          -53.3          31.57          74.72
   0.02929               -26.5          7.137          15.56          40.58         -16.97          19.39         -67.41          15.97         -53.34          31.57           74.7
   0.03138              -26.51          7.146          15.56          40.59         -16.97          19.38         -67.34          15.96         -53.38          31.57          74.68
   0.03347              -26.52          7.155          15.56          40.59         -16.97          19.37         -67.26          15.96         -53.43          31.57          74.66
   0.03556              -26.52          7.164          15.56           40.6         -16.97          19.35         -67.17          15.95         -53.48          31.56          74.63
   0.03765              -26.53          7.175          15.56          40.61         -16.97          19.33         -67.08          15.94         -53.54          31.56           74.6
   0.03975              -26.54          7.186          15.55          40.62         -16.97          19.32         -66.98          15.93          -53.6          31.56          74.57
   0.04184              -26.55          7.199          15.55          40.63         -16.98           19.3         -66.87          15.92         -53.67          31.55          74.54
   0.04393              -26.56          7.213          15.55          40.64         -16.98          19.27         -66.75          15.91         -53.75          31.55           74.5
   0.04602              -26.57          7.229          15.55          40.66         -16.98          19.25         -66.61           15.9         -53.83          31.55          74.46
   0.04811              -26.58          7.246          15.54          40.67         -16.98          19.22         -66.46          15.89         -53.92          31.54          74.42
   0.05021              -26.59          7.265          15.54          40.69         -16.98          19.19          -66.3          15.87         -54.03          31.54          74.37
    0.0523              -26.61          7.286          15.53          40.71         -16.99          19.16         -66.11          15.86         -54.14          31.53          74.31
   0.05439              -26.62           7.31          15.53          40.73         -16.99          19.12         -65.91          15.84         -54.27          31.53          74.25
   0.05648              -26.64          7.337          15.53          40.75         -16.99          19.08         -65.67          15.82         -54.42          31.52          74.18
   0.05857              -26.66          7.367          15.52          40.78          -17.0          19.03         -65.41           15.8         -54.58          31.51          74.09
   0.06067              -26.69          7.401          15.51          40.81          -17.0          18.98         -65.11          15.77         -54.77           31.5           74.0
   0.06276              -26.71          7.441           15.5          40.84         -17.01          18.92         -64.77          15.74         -54.98          31.49           73.9
   0.06485              -26.75          7.486           15.5          40.88         -17.01          18.85         -64.38          15.71         -55.22          31.48          73.78
   0.06694              -26.78          7.538          15.49          40.93         -17.02          18.77         -63.92          15.67         -55.51          31.47          73.64
   0.06903              -26.82          7.598          15.47          40.98         -17.03          18.67          -63.4          15.62         -55.83          31.45          73.48
   0.07112              -26.87          7.669          15.46          41.04         -17.04          18.56         -62.78          15.57         -56.22          31.43           73.3
   0.07322              -26.93          7.752          15.44          41.11         -17.05          18.43         -62.06          15.51         -56.67          31.41          73.07
   0.07531               -27.0          7.851          15.42           41.2         -17.06          18.28         -61.19          15.43          -57.2          31.39          72.81
    0.0774              -27.08           7.97           15.4           41.3         -17.08          18.09         -60.16          15.34         -57.85          31.35           72.5
